<svg width="36" height="32" viewBox="0 0 36 32" fill="none" xmlns="http://www.w3.org/2000/svg">
<path fill="url(#gradient)" clip-rule="evenodd" d="M31.6707 31.6146C30.4551 31.6429 27.6808 31.7074 26.937 29.9677C26.3595 28.5938 25.0769 25.6471 24.1769 23.5862H11.1724C11.1724 23.5862 11.7931 21.1034 14.2759 21.1034H23.0887L21.8211 18.257C21.8211 18.257 20.0269 14.2241 19.0571 12.0744C18.0873 9.92457 17.069 7.6778 16.0022 5.33405H15.9052C15.0808 7.11207 14.0867 9.30226 12.923 11.9046L4.7764 30.1131C4.09015 31.6542 1.83007 31.7201 0.68134 31.7536C0.287837 31.7651 0.0247453 31.7727 0 31.8346C0.420259 30.9941 2.14978 27.2926 5.18858 20.7301C8.24353 14.1514 14.6929 0 14.6929 0H17.8448C21.0776 7.24138 24.2538 14.2565 27.3734 21.0453C27.3823 21.0647 27.3912 21.0841 27.4001 21.1034H30.3574C33.1787 21.1034 36 23.5862 36 23.5862H28.5411C30.8927 28.7028 32.1275 31.3869 32.2458 31.6385C32.2244 31.6017 32.0073 31.6067 31.6707 31.6146ZM32.2468 31.6406C32.2464 31.6399 32.2461 31.6392 32.2458 31.6385Z" fill="url(#paint0_linear_201_91)"/>
<defs>
<linearGradient id="gradient" x1="-12.5455" y1="4.29545" x2="41.5115" y2="33.7913" gradientUnits="userSpaceOnUse">
<stop stop-color="#EFA941"/>
<stop offset="0.942708" stop-color="#FF1717"/>
</linearGradient>
</defs>
</svg>

