<svg width="268" height="236" viewBox="0 0 268 236" fill="none" xmlns="http://www.w3.org/2000/svg">
<mask id="path-1-outside-1_201_10" maskUnits="userSpaceOnUse" x="0" y="0" width="268" height="236" fill="black">
<rect fill="white" width="268" height="236"/>
<path fill-rule="evenodd" clip-rule="evenodd" d="M233.252 232.84C235.767 232.782 237.372 232.744 237.476 233.031C236.654 231.285 227.596 211.596 210.301 173.966H265C265 173.966 244.31 155.758 223.621 155.759C218.929 155.759 211.237 155.759 201.934 155.759C201.869 155.617 201.804 155.474 201.738 155.332C178.861 105.547 155.569 54.1034 131.862 1H108.748C108.748 1 61.4526 104.777 39.0496 153.02C16.8024 201.065 4.12438 228.199 1.01556 234.423C1.00942 234.433 1.00424 234.443 1 234.454L1.01556 234.423C1.27206 233.997 3.17817 233.942 5.99649 233.86C14.4205 233.614 30.9944 233.131 36.0269 221.83L95.7683 88.3006C104.303 69.2166 111.593 53.1552 117.638 40.1164H118.349C126.172 57.3039 133.64 73.7802 140.752 89.5453C147.864 105.31 161.022 134.885 161.022 134.885L170.317 155.759C156.182 155.759 141.71 155.759 129.74 155.759L105.69 155.759C87.4827 155.759 82.931 173.966 82.931 173.966H178.297C184.898 189.079 194.303 210.688 198.538 220.763C203.992 233.521 224.337 233.048 233.252 232.84Z"/>
</mask>
<path fill-rule="evenodd" clip-rule="evenodd" d="M233.252 232.84C235.767 232.782 237.372 232.744 237.476 233.031C236.654 231.285 227.596 211.596 210.301 173.966H265C265 173.966 244.31 155.758 223.621 155.759C218.929 155.759 211.237 155.759 201.934 155.759C201.869 155.617 201.804 155.474 201.738 155.332C178.861 105.547 155.569 54.1034 131.862 1H108.748C108.748 1 61.4526 104.777 39.0496 153.02C16.8024 201.065 4.12438 228.199 1.01556 234.423C1.00942 234.433 1.00424 234.443 1 234.454L1.01556 234.423C1.27206 233.997 3.17817 233.942 5.99649 233.86C14.4205 233.614 30.9944 233.131 36.0269 221.83L95.7683 88.3006C104.303 69.2166 111.593 53.1552 117.638 40.1164H118.349C126.172 57.3039 133.64 73.7802 140.752 89.5453C147.864 105.31 161.022 134.885 161.022 134.885L170.317 155.759C156.182 155.759 141.71 155.759 129.74 155.759L105.69 155.759C87.4827 155.759 82.931 173.966 82.931 173.966H178.297C184.898 189.079 194.303 210.688 198.538 220.763C203.992 233.521 224.337 233.048 233.252 232.84Z" fill="white"/>
<path d="M161.197 135.416L161.375 135.238L160.668 134.531L160.49 134.709L161.197 135.416ZM237.476 233.031L236.571 233.457L238.416 232.69L237.476 233.031ZM233.252 232.84L233.229 231.84L233.252 232.84ZM210.301 173.966V172.966H208.741L209.393 174.383L210.301 173.966ZM265 173.966V174.966H267.65L265.661 173.215L265 173.966ZM223.621 155.759L223.621 154.759L223.621 155.759ZM201.934 155.759L201.026 156.176L201.293 156.759H201.934V155.759ZM201.738 155.332L202.647 154.914L201.738 155.332ZM131.862 1L132.775 0.592349L132.511 0H131.862V1ZM108.748 1V0H108.105L107.838 0.585297L108.748 1ZM39.0496 153.02L38.1426 152.599L38.1421 152.6L39.0496 153.02ZM1 234.454L0.0715273 234.082L1.89453 234.901L1 234.454ZM5.99649 233.86L6.02563 234.859H6.02563L5.99649 233.86ZM36.0269 221.83L35.1141 221.421L35.1134 221.423L36.0269 221.83ZM95.7683 88.3006L96.6811 88.709L96.6812 88.7089L95.7683 88.3006ZM117.638 40.1164V39.1164H116.999L116.731 39.6958L117.638 40.1164ZM118.349 40.1164L119.259 39.7021L118.993 39.1164H118.349V40.1164ZM140.752 89.5453L141.664 89.134L140.752 89.5453ZM161.022 134.885L160.108 135.291L160.108 135.291L161.022 134.885ZM170.317 155.759V156.759H171.857L171.231 155.352L170.317 155.759ZM129.74 155.759V154.759V155.759ZM105.69 155.759V154.759V155.759ZM82.931 173.966L81.9609 173.723L81.6502 174.966H82.931V173.966ZM178.297 173.966L179.214 173.565L178.952 172.966H178.297V173.966ZM198.538 220.763L197.616 221.15L197.618 221.156L198.538 220.763ZM238.416 232.69C238.262 232.265 237.911 232.086 237.777 232.026C237.609 231.95 237.435 231.911 237.299 231.887C237.019 231.838 236.669 231.816 236.294 231.807C235.535 231.787 234.475 231.811 233.229 231.84L233.275 233.84C234.544 233.81 235.544 233.787 236.242 233.806C236.596 233.815 236.824 233.834 236.953 233.857C237.021 233.869 237.01 233.873 236.959 233.851C236.942 233.843 236.665 233.726 236.536 233.373L238.416 232.69ZM209.393 174.383C226.685 212.009 235.747 231.705 236.571 233.457L238.381 232.605C237.562 230.864 228.507 211.183 211.21 173.548L209.393 174.383ZM210.301 174.966H265V172.966H210.301V174.966ZM265 173.966C265.661 173.215 265.66 173.215 265.66 173.214C265.66 173.214 265.659 173.214 265.659 173.213C265.658 173.213 265.657 173.212 265.655 173.21C265.652 173.208 265.648 173.204 265.643 173.199C265.632 173.189 265.616 173.175 265.595 173.157C265.553 173.121 265.491 173.068 265.411 173C265.25 172.863 265.013 172.663 264.705 172.41C264.09 171.905 263.19 171.185 262.046 170.322C259.76 168.598 256.495 166.299 252.575 163.999C244.762 159.416 234.231 154.758 223.621 154.759L223.621 156.759C233.7 156.758 243.859 161.205 251.563 165.724C255.402 167.977 258.602 170.23 260.842 171.919C261.961 172.763 262.839 173.466 263.436 173.956C263.734 174.201 263.962 174.393 264.114 174.522C264.19 174.587 264.248 174.637 264.285 174.669C264.304 174.686 264.318 174.698 264.327 174.706C264.332 174.71 264.335 174.712 264.337 174.714C264.338 174.715 264.339 174.716 264.339 174.716C264.339 174.716 264.339 174.716 264.339 174.716C264.339 174.716 264.339 174.716 265 173.966ZM223.621 154.759C218.929 154.759 211.237 154.759 201.934 154.759V156.759C211.237 156.759 218.929 156.759 223.621 156.759L223.621 154.759ZM200.829 155.749C200.895 155.892 200.96 156.034 201.026 156.176L202.843 155.341C202.778 155.199 202.712 155.057 202.647 154.914L200.829 155.749ZM130.949 1.40765C154.657 54.5142 177.951 105.961 200.829 155.749L202.647 154.914C179.771 105.133 156.481 53.6927 132.775 0.592349L130.949 1.40765ZM108.748 2H131.862V0H108.748V2ZM39.9565 153.442C51.1594 129.317 68.5851 91.3093 83.2092 59.3348C90.5215 43.3472 97.1336 28.8672 101.918 18.3841C104.31 13.1426 106.245 8.90026 107.582 5.9683C108.25 4.50233 108.769 3.36394 109.121 2.59204C109.297 2.2061 109.431 1.91177 109.521 1.71392C109.567 1.615 109.601 1.5402 109.623 1.49013C109.635 1.46509 109.643 1.44624 109.649 1.43364C109.652 1.42734 109.654 1.42261 109.656 1.41945C109.656 1.41787 109.657 1.41668 109.657 1.41589C109.658 1.4151 109.658 1.4147 108.748 1C107.838 0.585297 107.838 0.585691 107.837 0.58648C107.837 0.58727 107.836 0.588454 107.836 0.590032C107.834 0.593187 107.832 0.597917 107.829 0.604211C107.824 0.616799 107.815 0.635645 107.804 0.660674C107.781 0.71073 107.747 0.785515 107.702 0.884421C107.611 1.08223 107.477 1.37653 107.301 1.76244C106.949 2.53427 106.43 3.67258 105.762 5.13848C104.425 8.07028 102.49 12.3124 100.098 17.5538C95.3143 28.0365 88.7024 42.516 81.3904 58.503C66.7662 90.4778 49.3427 128.48 38.1426 152.599L39.9565 153.442ZM1.91015 234.869C5.02756 228.629 17.7145 201.475 39.957 153.441L38.1421 152.6C15.8903 200.655 3.2212 227.769 0.120957 233.976L1.91015 234.869ZM1.92847 234.825C1.91171 234.867 1.89237 234.905 1.87181 234.939L0.159303 233.906C0.126476 233.96 0.0967587 234.019 0.0715273 234.082L1.92847 234.825ZM0.121026 233.976L0.105471 234.007L1.89453 234.901L1.91008 234.87L0.121026 233.976ZM5.96736 232.86C4.57125 232.901 3.35412 232.936 2.4559 233.016C2.00976 233.057 1.59554 233.111 1.2576 233.198C1.08872 233.241 0.903241 233.301 0.72933 233.391C0.56534 233.475 0.325772 233.63 0.159303 233.906L1.87181 234.939C1.81842 235.028 1.75961 235.085 1.72036 235.117C1.68149 235.15 1.65276 235.165 1.64593 235.168C1.63636 235.173 1.6639 235.159 1.75383 235.135C1.9335 235.089 2.22004 235.046 2.63479 235.008C3.45832 234.934 4.60341 234.901 6.02563 234.859L5.96736 232.86ZM35.1134 221.423C32.7766 226.67 27.7276 229.493 22.0242 231.025C16.3283 232.554 10.1926 232.737 5.96735 232.86L6.02563 234.859C10.2244 234.737 16.5876 234.555 22.5428 232.956C28.4905 231.359 34.2447 228.29 36.9405 222.237L35.1134 221.423ZM94.8555 87.8923L35.1141 221.421L36.9397 222.238L96.6811 88.709L94.8555 87.8923ZM116.731 39.6958C110.683 52.74 103.391 68.8059 94.8554 87.8924L96.6812 88.7089C105.215 69.6273 112.502 53.5703 118.545 40.537L116.731 39.6958ZM118.349 39.1164H117.638V41.1164H118.349V39.1164ZM141.664 89.134C134.551 73.3678 127.083 56.8905 119.259 39.7021L117.439 40.5307C125.262 57.7172 132.729 74.1925 139.841 89.9565L141.664 89.134ZM161.022 134.885C161.935 134.478 161.935 134.478 161.935 134.478C161.935 134.478 161.935 134.477 161.935 134.477C161.934 134.476 161.934 134.475 161.933 134.473C161.931 134.469 161.929 134.464 161.926 134.457C161.919 134.442 161.91 134.421 161.897 134.393C161.872 134.336 161.835 134.252 161.786 134.142C161.688 133.922 161.543 133.596 161.356 133.176C160.982 132.337 160.44 131.12 159.768 129.611C158.423 126.591 156.556 122.402 154.467 117.719C150.289 108.355 145.221 97.0186 141.664 89.134L139.841 89.9565C143.396 97.837 148.462 109.17 152.641 118.534C154.73 123.216 156.597 127.405 157.941 130.424C158.613 131.934 159.155 133.15 159.529 133.99C159.716 134.409 159.86 134.735 159.958 134.955C160.007 135.065 160.045 135.149 160.07 135.206C160.082 135.234 160.092 135.255 160.098 135.27C160.102 135.277 160.104 135.282 160.105 135.286C160.106 135.288 160.107 135.289 160.107 135.29C160.107 135.29 160.108 135.291 160.108 135.291C160.108 135.291 160.108 135.291 161.022 134.885ZM171.231 155.352L161.935 134.478L160.108 135.291L169.404 156.166L171.231 155.352ZM170.317 154.759C156.182 154.759 141.71 154.759 129.74 154.759V156.759C141.71 156.759 156.182 156.759 170.317 156.759V154.759ZM129.74 154.759L105.69 154.759V156.759L129.74 156.759V154.759ZM105.69 154.759C96.1933 154.759 90.233 159.528 86.6827 164.262C84.9138 166.621 83.7378 168.974 83.0036 170.736C82.636 171.618 82.3776 172.356 82.2101 172.877C82.1264 173.138 82.0652 173.345 82.0245 173.488C82.0041 173.56 81.9888 173.617 81.9783 173.656C81.973 173.676 81.969 173.691 81.9661 173.703C81.9646 173.708 81.9635 173.713 81.9626 173.716C81.9622 173.718 81.9618 173.719 81.9615 173.72C81.9614 173.721 81.9612 173.722 81.9612 173.722C81.961 173.722 81.9609 173.723 82.931 173.966C83.9012 174.208 83.9011 174.208 83.901 174.209C83.901 174.209 83.9009 174.209 83.9009 174.209C83.9009 174.209 83.901 174.209 83.9011 174.208C83.9014 174.207 83.9019 174.205 83.9027 174.202C83.9043 174.196 83.9071 174.185 83.911 174.17C83.9188 174.141 83.9313 174.095 83.9487 174.034C83.9835 173.911 84.0379 173.726 84.1142 173.489C84.2668 173.015 84.5062 172.33 84.8498 171.505C85.538 169.854 86.6379 167.655 88.2827 165.462C91.5601 161.092 96.9791 156.759 105.69 156.759V154.759ZM82.931 174.966H178.297V172.966H82.931V174.966ZM199.46 220.375C195.222 210.292 185.813 188.676 179.214 173.565L177.381 174.366C183.982 189.481 193.385 211.083 197.616 221.15L199.46 220.375ZM233.229 231.84C228.76 231.945 221.557 232.108 214.804 230.685C208.022 229.256 201.989 226.291 199.457 220.37L197.618 221.156C200.541 227.993 207.407 231.17 214.391 232.642C221.403 234.12 228.829 233.943 233.275 233.84L233.229 231.84Z" fill="#7E7E7E" mask="url(#path-1-outside-1_201_10)"/>
</svg>
